<mxfile host="app.diagrams.net" agent="Mozilla/5.0 (Macintosh; Intel Mac OS X 10.15; rv:134.0) Gecko/20100101 Firefox/134.0" version="26.0.7">
  <diagram name="Page-1" id="T7-2kkc5fTMEt4OdFops">
    <mxGraphModel dx="1080" dy="1091" grid="1" gridSize="10" guides="1" tooltips="1" connect="1" arrows="1" fold="1" page="0" pageScale="1" pageWidth="850" pageHeight="1100" math="0" shadow="0">
      <root>
        <mxCell id="0" />
        <mxCell id="1" parent="0" />
        <mxCell id="Ek_r109Na2GJmbcFJiNA-13" style="edgeStyle=orthogonalEdgeStyle;rounded=0;orthogonalLoop=1;jettySize=auto;html=1;entryX=0;entryY=0.5;entryDx=0;entryDy=0;" edge="1" parent="1">
          <mxGeometry relative="1" as="geometry">
            <mxPoint x="105" y="320" as="sourcePoint" />
            <mxPoint x="185" y="210" as="targetPoint" />
            <Array as="points">
              <mxPoint x="105" y="210" />
            </Array>
          </mxGeometry>
        </mxCell>
        <mxCell id="Ek_r109Na2GJmbcFJiNA-1" value="Client" style="shape=umlActor;verticalLabelPosition=bottom;verticalAlign=top;html=1;outlineConnect=0;" vertex="1" parent="1">
          <mxGeometry x="90" y="320" width="30" height="60" as="geometry" />
        </mxCell>
        <mxCell id="Ek_r109Na2GJmbcFJiNA-5" value="" style="shape=sumEllipse;perimeter=ellipsePerimeter;whiteSpace=wrap;html=1;backgroundOutline=1;" vertex="1" parent="1">
          <mxGeometry x="65" y="470" width="80" height="80" as="geometry" />
        </mxCell>
        <mxCell id="Ek_r109Na2GJmbcFJiNA-7" value="&lt;div&gt;&lt;b&gt;CDN&lt;/b&gt;&lt;/div&gt;" style="whiteSpace=wrap;html=1;aspect=fixed;" vertex="1" parent="1">
          <mxGeometry x="180" y="170" width="80" height="80" as="geometry" />
        </mxCell>
        <mxCell id="Ek_r109Na2GJmbcFJiNA-8" value="&lt;div&gt;&lt;b&gt;Dashboard&lt;/b&gt;&lt;/div&gt;&lt;div&gt;&lt;b&gt;App&lt;br&gt;&lt;/b&gt;&lt;/div&gt;" style="whiteSpace=wrap;html=1;aspect=fixed;" vertex="1" parent="1">
          <mxGeometry x="389" y="170" width="80" height="80" as="geometry" />
        </mxCell>
        <mxCell id="Ek_r109Na2GJmbcFJiNA-9" value="&lt;div&gt;&lt;b&gt;Sensor Input &lt;br&gt;&lt;/b&gt;&lt;/div&gt;&lt;div&gt;&lt;b&gt;App&lt;br&gt;&lt;/b&gt;&lt;/div&gt;" style="whiteSpace=wrap;html=1;aspect=fixed;" vertex="1" parent="1">
          <mxGeometry x="368" y="490" width="81" height="80" as="geometry" />
        </mxCell>
        <mxCell id="Ek_r109Na2GJmbcFJiNA-18" style="edgeStyle=orthogonalEdgeStyle;rounded=0;orthogonalLoop=1;jettySize=auto;html=1;entryX=0;entryY=0.5;entryDx=0;entryDy=0;" edge="1" parent="1" source="Ek_r109Na2GJmbcFJiNA-14" target="Ek_r109Na2GJmbcFJiNA-9">
          <mxGeometry relative="1" as="geometry" />
        </mxCell>
        <mxCell id="Ek_r109Na2GJmbcFJiNA-14" value="&lt;div&gt;&lt;b&gt;Load Balancer&lt;/b&gt;&lt;/div&gt;&lt;br&gt;&lt;div&gt;&lt;b&gt;(L4?)&lt;/b&gt;&lt;/div&gt;" style="whiteSpace=wrap;html=1;aspect=fixed;" vertex="1" parent="1">
          <mxGeometry x="243" y="490" width="81" height="80" as="geometry" />
        </mxCell>
        <mxCell id="Ek_r109Na2GJmbcFJiNA-16" value="&lt;div&gt;&lt;b&gt;Sensor Input &lt;br&gt;&lt;/b&gt;&lt;/div&gt;&lt;div&gt;&lt;b&gt;App&lt;br&gt;&lt;/b&gt;&lt;/div&gt;" style="whiteSpace=wrap;html=1;aspect=fixed;" vertex="1" parent="1">
          <mxGeometry x="378" y="500" width="81" height="80" as="geometry" />
        </mxCell>
        <mxCell id="Ek_r109Na2GJmbcFJiNA-17" value="&lt;div&gt;&lt;b&gt;Sensor Input &lt;br&gt;&lt;/b&gt;&lt;/div&gt;&lt;div&gt;&lt;b&gt;App&lt;br&gt;&lt;/b&gt;&lt;/div&gt;" style="whiteSpace=wrap;html=1;aspect=fixed;" vertex="1" parent="1">
          <mxGeometry x="388" y="510" width="81" height="80" as="geometry" />
        </mxCell>
        <mxCell id="Ek_r109Na2GJmbcFJiNA-19" value="Sensors" style="text;html=1;align=center;verticalAlign=middle;whiteSpace=wrap;rounded=0;" vertex="1" parent="1">
          <mxGeometry x="90" y="570" width="60" height="30" as="geometry" />
        </mxCell>
        <mxCell id="Ek_r109Na2GJmbcFJiNA-20" value="" style="shape=sumEllipse;perimeter=ellipsePerimeter;whiteSpace=wrap;html=1;backgroundOutline=1;" vertex="1" parent="1">
          <mxGeometry x="75" y="480" width="80" height="80" as="geometry" />
        </mxCell>
        <mxCell id="Ek_r109Na2GJmbcFJiNA-22" value="" style="edgeStyle=orthogonalEdgeStyle;rounded=0;orthogonalLoop=1;jettySize=auto;html=1;" edge="1" parent="1" source="Ek_r109Na2GJmbcFJiNA-21" target="Ek_r109Na2GJmbcFJiNA-14">
          <mxGeometry relative="1" as="geometry" />
        </mxCell>
        <mxCell id="Ek_r109Na2GJmbcFJiNA-21" value="" style="shape=sumEllipse;perimeter=ellipsePerimeter;whiteSpace=wrap;html=1;backgroundOutline=1;" vertex="1" parent="1">
          <mxGeometry x="85" y="490" width="80" height="80" as="geometry" />
        </mxCell>
        <mxCell id="Ek_r109Na2GJmbcFJiNA-35" value="Read" style="edgeStyle=orthogonalEdgeStyle;rounded=0;orthogonalLoop=1;jettySize=auto;html=1;exitX=1;exitY=0.5;exitDx=0;exitDy=0;exitPerimeter=0;entryX=0.5;entryY=1;entryDx=0;entryDy=0;" edge="1" parent="1" source="Ek_r109Na2GJmbcFJiNA-27" target="Ek_r109Na2GJmbcFJiNA-34">
          <mxGeometry relative="1" as="geometry" />
        </mxCell>
        <mxCell id="Ek_r109Na2GJmbcFJiNA-27" value="&lt;div&gt;&lt;b&gt;DB Cluster&lt;/b&gt;&lt;/div&gt;&lt;div&gt;Time-series DB?&lt;/div&gt;&lt;div&gt;&lt;br&gt;&lt;/div&gt;&lt;div&gt;Reliable data recording to avoid data loss is top priority&lt;br&gt;&lt;/div&gt;&lt;div&gt;&lt;br&gt;&lt;/div&gt;&lt;div&gt;Own breakdown&lt;br&gt;&lt;/div&gt;&lt;div&gt;&lt;br&gt;&lt;/div&gt;&lt;div&gt;&lt;br&gt;&lt;/div&gt;" style="shape=cylinder3;whiteSpace=wrap;html=1;boundedLbl=1;backgroundOutline=1;size=15;" vertex="1" parent="1">
          <mxGeometry x="570" y="530" width="160" height="190" as="geometry" />
        </mxCell>
        <mxCell id="Ek_r109Na2GJmbcFJiNA-31" style="edgeStyle=orthogonalEdgeStyle;rounded=0;orthogonalLoop=1;jettySize=auto;html=1;exitX=1;exitY=0.5;exitDx=0;exitDy=0;entryX=0;entryY=0.5;entryDx=0;entryDy=0;entryPerimeter=0;" edge="1" parent="1" source="Ek_r109Na2GJmbcFJiNA-17" target="Ek_r109Na2GJmbcFJiNA-27">
          <mxGeometry relative="1" as="geometry" />
        </mxCell>
        <mxCell id="Ek_r109Na2GJmbcFJiNA-32" value="" style="whiteSpace=wrap;html=1;aspect=fixed;" vertex="1" parent="1">
          <mxGeometry x="810" y="420" width="80" height="80" as="geometry" />
        </mxCell>
        <mxCell id="Ek_r109Na2GJmbcFJiNA-33" value="" style="whiteSpace=wrap;html=1;aspect=fixed;" vertex="1" parent="1">
          <mxGeometry x="820" y="430" width="80" height="80" as="geometry" />
        </mxCell>
        <mxCell id="Ek_r109Na2GJmbcFJiNA-34" value="&lt;div&gt;&lt;b&gt;Worker&lt;/b&gt;&lt;/div&gt;Data churning" style="whiteSpace=wrap;html=1;aspect=fixed;" vertex="1" parent="1">
          <mxGeometry x="830" y="440" width="80" height="80" as="geometry" />
        </mxCell>
        <mxCell id="Ek_r109Na2GJmbcFJiNA-36" value="&lt;div&gt;&lt;b&gt;DB Cluster&lt;/b&gt;&lt;/div&gt;&lt;br&gt;&lt;div&gt;Relational&lt;/div&gt;&lt;div&gt;Store results of data-churning from workers&lt;/div&gt;&lt;div&gt;&lt;br&gt;&lt;/div&gt;&lt;div&gt;Prioritize high availability for reads&lt;/div&gt;" style="shape=cylinder3;whiteSpace=wrap;html=1;boundedLbl=1;backgroundOutline=1;size=15;" vertex="1" parent="1">
          <mxGeometry x="740" y="40" width="210" height="240" as="geometry" />
        </mxCell>
        <mxCell id="Ek_r109Na2GJmbcFJiNA-38" style="edgeStyle=orthogonalEdgeStyle;rounded=0;orthogonalLoop=1;jettySize=auto;html=1;exitX=0.5;exitY=0;exitDx=0;exitDy=0;entryX=0.5;entryY=1;entryDx=0;entryDy=0;entryPerimeter=0;" edge="1" parent="1">
          <mxGeometry relative="1" as="geometry">
            <mxPoint x="861.9999999999995" y="420" as="sourcePoint" />
            <mxPoint x="857" y="280.0000000000002" as="targetPoint" />
            <Array as="points">
              <mxPoint x="857" y="420" />
            </Array>
          </mxGeometry>
        </mxCell>
        <mxCell id="Ek_r109Na2GJmbcFJiNA-40" style="edgeStyle=orthogonalEdgeStyle;rounded=0;orthogonalLoop=1;jettySize=auto;html=1;exitX=1;exitY=0.5;exitDx=0;exitDy=0;entryX=0;entryY=0;entryDx=0;entryDy=172.50000000000003;entryPerimeter=0;" edge="1" parent="1" source="Ek_r109Na2GJmbcFJiNA-8" target="Ek_r109Na2GJmbcFJiNA-36">
          <mxGeometry relative="1" as="geometry" />
        </mxCell>
        <mxCell id="Ek_r109Na2GJmbcFJiNA-41" value="Redis Cache" style="shape=cylinder3;whiteSpace=wrap;html=1;boundedLbl=1;backgroundOutline=1;size=15;fontStyle=1" vertex="1" parent="1">
          <mxGeometry x="469" y="60" width="60" height="80" as="geometry" />
        </mxCell>
        <mxCell id="Ek_r109Na2GJmbcFJiNA-42" style="edgeStyle=orthogonalEdgeStyle;rounded=0;orthogonalLoop=1;jettySize=auto;html=1;exitX=0.75;exitY=0;exitDx=0;exitDy=0;entryX=0;entryY=1;entryDx=0;entryDy=-15;entryPerimeter=0;" edge="1" parent="1" source="Ek_r109Na2GJmbcFJiNA-8" target="Ek_r109Na2GJmbcFJiNA-41">
          <mxGeometry relative="1" as="geometry" />
        </mxCell>
        <mxCell id="Ek_r109Na2GJmbcFJiNA-43" value="" style="whiteSpace=wrap;html=1;aspect=fixed;" vertex="1" parent="1">
          <mxGeometry x="780" y="-190" width="80" height="80" as="geometry" />
        </mxCell>
        <mxCell id="Ek_r109Na2GJmbcFJiNA-44" value="" style="whiteSpace=wrap;html=1;aspect=fixed;" vertex="1" parent="1">
          <mxGeometry x="790" y="-180" width="80" height="80" as="geometry" />
        </mxCell>
        <mxCell id="Ek_r109Na2GJmbcFJiNA-45" value="&lt;div&gt;&lt;b&gt;Worker&lt;/b&gt;&lt;/div&gt;Notifications" style="whiteSpace=wrap;html=1;aspect=fixed;" vertex="1" parent="1">
          <mxGeometry x="800" y="-170" width="80" height="80" as="geometry" />
        </mxCell>
        <mxCell id="Ek_r109Na2GJmbcFJiNA-46" style="edgeStyle=orthogonalEdgeStyle;rounded=0;orthogonalLoop=1;jettySize=auto;html=1;exitX=0.5;exitY=1;exitDx=0;exitDy=0;entryX=0.476;entryY=-0.01;entryDx=0;entryDy=0;entryPerimeter=0;" edge="1" parent="1" source="Ek_r109Na2GJmbcFJiNA-45" target="Ek_r109Na2GJmbcFJiNA-36">
          <mxGeometry relative="1" as="geometry" />
        </mxCell>
        <mxCell id="Ek_r109Na2GJmbcFJiNA-47" style="edgeStyle=orthogonalEdgeStyle;rounded=0;orthogonalLoop=1;jettySize=auto;html=1;exitX=0.5;exitY=0;exitDx=0;exitDy=0;exitPerimeter=0;entryX=-0.011;entryY=0.661;entryDx=0;entryDy=0;entryPerimeter=0;" edge="1" parent="1" source="Ek_r109Na2GJmbcFJiNA-41" target="Ek_r109Na2GJmbcFJiNA-43">
          <mxGeometry relative="1" as="geometry" />
        </mxCell>
      </root>
    </mxGraphModel>
  </diagram>
</mxfile>
